<?xml version="1.0" encoding="utf-8"?>
<!-- Generator: Adobe Illustrator 19.1.0, SVG Export Plug-In . SVG Version: 6.00 Build 0)  -->
<svg version="1.1" id="Layer_1" xmlns="http://www.w3.org/2000/svg" xmlns:xlink="http://www.w3.org/1999/xlink" x="0px" y="0px"
	 viewBox="0 0 700 220" enable-background="new 0 0 700 220" xml:space="preserve">
<g>
	<path fill="none" d="M580.7,70c-2-1.9-10.4,3.3-21.6,12.7c3.9,2.1,7.4,5,10.2,8.4C578,80,582.7,71.9,580.7,70z"/>
	<path fill="none" d="M513.6,129.7c-8.8,11.2-13.5,19.4-11.6,21.3c1.9,1.8,9.6-2.8,20.1-11.5C518.7,136.8,515.8,133.5,513.6,129.7z"
		/>
	<path d="M586.4,64.2c2.2,2.1-3.1,11.5-13,24.1c1.5,1.8,2.7,3.7,3.9,5.7c26.6-30.4,42.6-54.8,37.9-59.4
		c-4.8-4.6-29.6,12.9-60.1,41.3c2.3,0.7,4.5,1.7,6.7,2.8C574.5,67.9,584.1,62,586.4,64.2z"/>
	<path d="M496.4,156.8c-2.2-2.1,3.2-11.6,13.2-24.3c-1.2-2.1-2.2-4.3-3-6.6c-27.2,30.9-43.7,55.9-38.9,60.5
		c4.6,4.5,28.3-11.9,57.6-39c-2.1-1.1-4-2.3-5.8-3.8C507.4,153.6,498.5,158.9,496.4,156.8z"/>
	<path d="M559.2,82.7c-7,5.9-15.2,13.5-23.6,22.2c-8.6,8.9-16.2,17.5-22,24.8c2.2,3.8,5.1,7.1,8.5,9.8c7.4-6.1,16.1-14.2,25-23.4
		c8.7-9,16.3-17.7,22.2-25C566.5,87.7,563.1,84.8,559.2,82.7z"/>
	<path d="M550.9,119.7c-8.1,8.3-16.1,16.1-23.6,23.1c4.7,2.5,10.1,3.9,15.8,3.9c18.8,0,34-15.2,34-34c0-6-1.6-11.7-4.3-16.6
		C566.1,103.6,558.8,111.6,550.9,119.7z"/>
	<path d="M553.4,80.2c-3.3-1-6.7-1.6-10.3-1.6c-18.8,0-34,15.2-34,34c0,4,0.7,7.7,1.9,11.3c6.4-7.3,13.4-14.9,21-22.7
		C539.2,93.7,546.5,86.7,553.4,80.2z"/>
	<path fill="none" d="M552.2,121c9-9.3,17.4-18.4,25-27c-1.1-2-2.4-3.9-3.9-5.7c-6.6,8.5-15.4,18.4-25.3,28.6
		c-10.2,10.5-20.2,19.8-28.6,26.7c1.8,1.4,3.8,2.7,5.8,3.8C533.8,139.5,543,130.6,552.2,121z"/>
	<path d="M535.6,104.9c8.4-8.6,16.5-16.2,23.6-22.2c-1.8-1-3.8-1.8-5.8-2.5c-6.9,6.4-14.1,13.5-21.5,21c-7.5,7.8-14.6,15.4-21,22.7
		c0.7,2,1.6,4,2.7,5.8C519.4,122.4,527,113.8,535.6,104.9z"/>
</g>
<g>
	<path d="M50.6,133.8h33.6c11.6,0,16.4-4.2,16.4-12.7c0-20-49.3-19.2-49.3-48.3c0-16,11.5-24.6,26.9-24.6h31.2v12.3h-33
		c-7.3,0-11.9,4.1-11.9,11.6c0,18.1,49.3,18.1,49.3,47.9c0,15.7-9.8,26.2-27.2,26.2h-36V133.8z"/>
	<path d="M177.2,146.1v-37.8c0-12.6-10.6-19-21.8-19c-13.6,0-22.1,10.8-22.1,23.5c0,12.5,9.1,23,22,23c7,0,12.7-3.9,16.9-9.2v14.6
		c-4.9,3.6-9.7,6.4-18.2,6.4c-19.3,0-33-16-33-35.7c0-19.2,13.2-34.3,34.7-34.3c20.7,0,33.9,12.6,33.9,31.9v36.7H177.2z"/>
	<path d="M239.7,90.7h-24.1v35.3c0,6.3,2.9,8.4,9.2,8.4h14.8v11.8h-16.5c-12.6,0-19.9-8.4-19.9-21.7V62.1h12.3v16.8h24.1V90.7z"/>
	<path d="M305.4,78.9v39.2c0,17.6-12.3,29.4-28.7,29.4S248,135.7,248,118.1V78.9h12.3v39.2c0,10.4,7.6,17.6,16.4,17.6
		s16.4-7.3,16.4-17.6V78.9H305.4z"/>
	<path d="M317.9,78.9h11.8v7.7h0.3c4.2-6.6,9.9-9.1,18.2-9.1h2.8v11.8h-1.8c-11.9,0-18.9,7.3-18.9,25.5v31.4h-12.3V78.9z"/>
	<path d="M356.9,146.1v-39.2c0-17.6,12.3-29.4,28.7-29.4s28.7,11.8,28.7,29.4v39.2H402v-39.2c0-10.4-7.6-17.6-16.4-17.6
		c-8.8,0-16.4,7.3-16.4,17.6v39.2H356.9z"/>
	<path d="M428.9,146.1v-98h24.8c27.7,0,48,22.7,48,49c0,26.3-20.3,49-48,49h-6v-12.3h7.1c18.3,0,33.2-16,33.2-36.7
		c0-21.6-15.8-36.7-37.9-36.7h-8v85.7H428.9z"/>
	<path d="M605.2,78.9v40.3c0,9.2,5.3,16.5,15.7,16.5c10.4,0,15.7-7.3,15.7-16.5V78.9h12.3v40.5c0,15.4-7.6,24.4-21.8,28.1v28.8
		h-12.3v-28.8c-14.3-3.8-21.8-12.7-21.8-28.1V78.9H605.2z"/>
</g>
<rect x="564.7" y="112.9" width="12.3" height="33.2"/>
</svg>
